<svg width="20" height="20" viewBox="0 0 20 20" fill="none" xmlns="http://www.w3.org/2000/svg">
<path fill-rule="evenodd" clip-rule="evenodd" d="M9.99868 9.99868C12.2078 9.99868 13.9982 8.20834 13.9982 5.99921C13.9982 3.79008 12.2078 1.99974 9.99868 1.99974C7.78955 1.99974 5.9992 3.79008 5.9992 5.99921C5.9992 8.20834 7.78955 9.99868 9.99868 9.99868ZM9.99868 0C13.3124 0 15.9979 2.68551 15.9979 5.99921C15.9979 7.91092 15.1041 9.61355 13.7115 10.7121C17.3969 12.1853 20 15.7882 20 20H17.9976C17.9976 15.5817 14.417 12.001 9.99869 12.001C5.58042 12.001 1.99974 15.5817 1.99974 20H0C0 15.7894 2.6031 12.1874 6.28751 10.7134C4.89398 9.61489 3.99947 7.91167 3.99947 5.99921C3.99947 2.68551 6.68498 0 9.99868 0Z" fill="#05141F"/>
</svg>
