<svg width="19" height="19" viewBox="0 0 19 19" fill="none" xmlns="http://www.w3.org/2000/svg">
<path fill-rule="evenodd" clip-rule="evenodd" d="M18.0203 13.4336C17.9766 14.393 17.8244 15.0462 17.6017 15.6189C17.3721 16.2115 17.0628 16.7136 16.5637 17.2147C16.0636 17.7118 15.5615 18.0201 14.9699 18.2497C14.3972 18.4724 13.743 18.6266 12.7856 18.6693C11.8241 18.7121 11.5189 18.723 9.07401 18.723C6.62814 18.723 6.3229 18.7121 5.36344 18.6693C4.40498 18.6266 3.75076 18.4724 3.17906 18.2497C2.58649 18.0201 2.08538 17.7118 1.58428 17.2147C1.08417 16.7136 0.775949 16.2115 0.546276 15.6189C0.323563 15.0462 0.170448 14.393 0.127695 13.4336C0.0839477 12.4751 0.0740051 12.1689 0.0740051 9.723C0.0740051 7.27813 0.0839477 6.97289 0.127695 6.01244C0.170448 5.05398 0.323563 4.40174 0.546276 3.82706C0.775949 3.23648 1.08417 2.73438 1.58428 2.23228C2.08538 1.73515 2.58649 1.42594 3.17906 1.19726C3.75076 0.973552 4.40498 0.820437 5.36344 0.777684C6.3229 0.733936 6.62814 0.723 9.07401 0.723C11.5189 0.723 11.8241 0.733936 12.7856 0.777684C13.743 0.820437 14.3972 0.973552 14.9699 1.19726C15.5615 1.42594 16.0636 1.73515 16.5637 2.23228C17.0628 2.73438 17.3721 3.23648 17.6017 3.82706C17.8244 4.40174 17.9766 5.05398 18.0203 6.01244C18.0641 6.97289 18.074 7.27813 18.074 9.723C18.074 12.1689 18.0641 12.4751 18.0203 13.4336ZM9.07798 5.71317C6.86477 5.71317 5.07113 7.5068 5.07113 9.71902C5.07113 11.9332 6.86477 13.7269 9.07798 13.7269C11.2912 13.7269 13.0848 11.9332 13.0848 9.71902C13.0848 7.5068 11.2912 5.71317 9.07798 5.71317ZM14.0771 3.72466C13.5253 3.72466 13.0779 4.17008 13.0779 4.72289C13.0779 5.27371 13.5253 5.72112 14.0771 5.72112C14.6279 5.72112 15.0753 5.27371 15.0753 4.72289C15.0753 4.17008 14.6279 3.72466 14.0771 3.72466Z" fill="white"/>
</svg>
