<svg width="20" height="23" viewBox="0 0 20 23" fill="none" xmlns="http://www.w3.org/2000/svg">
<rect y="17" width="20" height="2" fill="#05141F"/>
<path fill-rule="evenodd" clip-rule="evenodd" d="M10 2C14.4183 2 18 5.58172 18 10V19H16V10C16 6.68629 13.3137 4 10 4C6.68629 4 4 6.68629 4 10V19H2V10C2 5.58172 5.58172 2 10 2Z" fill="#05141F"/>
<path fill-rule="evenodd" clip-rule="evenodd" d="M6 19C6 21.2091 7.79086 23 10 23C12.2091 23 14 21.2091 14 19H12C12 20.1046 11.1046 21 10 21C8.89543 21 8 20.1046 8 19H6Z" fill="#05141F"/>
<rect x="9" width="2" height="4" rx="1" fill="#05141F"/>
</svg>
