<svg width="23" height="16" viewBox="0 0 23 16" fill="none" xmlns="http://www.w3.org/2000/svg">
<path fill-rule="evenodd" clip-rule="evenodd" d="M22.4582 12.3493C22.4582 12.3493 22.2434 14.073 21.585 14.8317C20.7492 15.8296 19.8105 15.8327 19.382 15.8922C16.2998 16.1427 11.68 16.154 11.68 16.154C11.68 16.154 5.95919 16.0914 4.19878 15.9004C3.71079 15.7967 2.61079 15.8296 1.77193 14.8317C1.11455 14.074 0.898784 12.3493 0.898784 12.3493C0.898784 12.3493 0.678986 10.3258 0.678986 8.29927V6.6464V6.40103C0.678986 4.37652 0.898784 3.94944 0.898784 3.94944C0.898784 3.94944 1.11455 2.22676 1.77193 1.46603C2.61079 0.471227 3.54745 0.464041 3.97697 0.408603C7.05515 0.153999 11.6739 0.153999 11.6739 0.153999H11.684C11.684 0.153999 16.2998 0.153999 19.382 0.407576C19.8105 0.464041 20.7492 0.471227 21.585 1.46603C22.2434 2.22368 22.4582 3.94944 22.4582 3.94944C22.4582 3.94944 22.679 4.37652 22.679 6.40103V6.75214V8.29927C22.679 10.3258 22.4582 12.3493 22.4582 12.3493ZM8.68247 4.17017L8.68348 12.1471L15.6596 8.22022L8.68247 4.17017Z" fill="white"/>
</svg>
